# xmcd
#
# Track frame offsets:
#	183
#	20323
#	39023
#	58680
#	78688
#	98730
#	119433
#	139090
#	159755
#	179345
#
# Disc length: 2673 seconds
#
# Revision: 1
# Processed by: cddbd v1.5.2PL0 Copyright (c) Steve Scherf et al.
# Submitted via: EZCDAudioConverter 1.3.4.1
#
DISCID=740a6f0a
DTITLE=Keith Staten - From The Heart
DYEAR=1990
DGENRE=Gospel
TTITLE0=Deliverance
TTITLE1=Don't walk away
TTITLE2=Learn to disagree
TTITLE3=Serve him
TTITLE4=Gonna live
TTITLE5=You
TTITLE6=He is the way
TTITLE7=From the heart
TTITLE8=Miracles
TTITLE9=A christmas message
EXTD=
EXTT0=
EXTT1=
EXTT2=
EXTT3=
EXTT4=
EXTT5=
EXTT6=
EXTT7=
EXTT8=
EXTT9=
PLAYORDER=
